<mxfile host="app.diagrams.net" modified="2020-10-01T17:20:06.584Z" agent="5.0 (Windows NT 10.0; Win64; x64) AppleWebKit/537.36 (KHTML, like Gecko) Chrome/85.0.4183.121 Safari/537.36" etag="UiZ2lZW9a3q28rQu9q2O" version="13.7.7" type="github">
  <diagram id="E1YVDQkT8MsJH0ASiLPJ" name="Page-1">
    <mxGraphModel dx="1098" dy="494" grid="1" gridSize="10" guides="1" tooltips="1" connect="1" arrows="1" fold="1" page="1" pageScale="1" pageWidth="850" pageHeight="1100" math="0" shadow="0">
      <root>
        <mxCell id="0" />
        <mxCell id="1" parent="0" />
        <mxCell id="utxVvkAblWpSlixiN7Dl-1" value="" style="aspect=fixed;perimeter=ellipsePerimeter;html=1;align=center;shadow=0;dashed=0;fontColor=#4277BB;labelBackgroundColor=#ffffff;fontSize=12;spacingTop=3;image;image=img/lib/ibm/infrastructure/diagnostics.svg;" vertex="1" parent="1">
          <mxGeometry x="150" y="300" width="60" height="60" as="geometry" />
        </mxCell>
      </root>
    </mxGraphModel>
  </diagram>
</mxfile>
